<?xml version="1.0" encoding="UTF-8"?>
<!DOCTYPE svg PUBLIC "-//W3C//DTD SVG 1.1//EN" "http://www.w3.org/Graphics/SVG/1.1/DTD/svg11.dtd">
<!-- Creator: CorelDRAW X7 -->
<svg xmlns="http://www.w3.org/2000/svg" xml:space="preserve" width="50.8mm" height="50.8mm" version="1.1" style="shape-rendering:geometricPrecision; text-rendering:geometricPrecision; image-rendering:optimizeQuality; fill-rule:evenodd; clip-rule:evenodd"
viewBox="0 0 5080 5080"
 xmlns:xlink="http://www.w3.org/1999/xlink">
 <defs>
  <style type="text/css">
   <![CDATA[
    .fil1 {fill:#006DF0}
    .fil0 {fill:white}
   ]]>
  </style>
 </defs>
 <g id="Camada_x0020_1">
  <metadata id="CorelCorpID_0Corel-Layer"/>
  <path class="fil0" d="M4284 3258c59,-133 102,-274 130,-420 -111,143 -232,279 -362,406 77,6 155,10 232,14z"/>
  <path class="fil1" d="M3982 1202c-361,-425 -898,-694 -1498,-694 -175,0 -345,23 -506,66 59,673 195,1294 389,1826 712,-294 1278,-710 1615,-1198z"/>
  <path class="fil0" d="M1649 2641c171,-45 337,-97 496,-154 -203,-549 -340,-1173 -402,-1834 -603,246 -1057,783 -1186,1436 201,174 455,337 756,485 38,-24 84,-38 132,-38 84,0 158,42 204,105z"/>
  <path class="fil0" d="M2344 2959c-38,-80 -76,-163 -111,-247 -108,39 -218,76 -329,109 142,50 289,96 440,138z"/>
  <path class="fil0" d="M3521 3191c45,-53 113,-88 189,-88 40,0 77,11 111,27 241,-225 452,-481 624,-763 -18,-353 -131,-681 -312,-961 -232,315 -555,604 -959,855 -222,137 -464,259 -719,364 60,146 125,283 195,411 278,65 570,117 871,155z"/>
  <path class="fil0" d="M3710 3604c-24,0 -47,-4 -69,-11 -123,91 -250,175 -383,251 110,99 225,180 344,243 226,-157 417,-359 561,-594 -79,-5 -158,-11 -236,-17 -43,76 -124,128 -217,128z"/>
  <path class="fil0" d="M1837 4327c203,71 420,110 647,110 317,0 617,-76 883,-210 -114,-73 -225,-162 -332,-265 -370,181 -773,307 -1198,365z"/>
  <path class="fil0" d="M2818 3320c83,127 171,242 263,345 131,-72 258,-151 378,-238 -219,-28 -433,-65 -641,-107z"/>
  <path class="fil0" d="M1615 2969c-45,42 -104,67 -170,67 -63,0 -120,-24 -163,-62 -218,42 -442,75 -669,97 139,436 426,805 802,1049 516,-16 1006,-138 1447,-344 -130,-153 -253,-329 -367,-529 -311,-77 -606,-170 -880,-278z"/>
  <path class="fil0" d="M522 2371c-2,34 -3,67 -3,101 0,124 12,245 34,363 199,-19 394,-45 583,-79 -233,-119 -438,-248 -614,-385z"/>
 </g>
</svg>
