<?xml version="1.0" encoding="UTF-8"?>
<!DOCTYPE svg PUBLIC "-//W3C//DTD SVG 1.1//EN" "http://www.w3.org/Graphics/SVG/1.1/DTD/svg11.dtd">
<!-- Creator: CorelDRAW X7 -->
<svg xmlns="http://www.w3.org/2000/svg" xml:space="preserve" width="210mm" height="297mm" version="1.1" style="shape-rendering:geometricPrecision; text-rendering:geometricPrecision; image-rendering:optimizeQuality; fill-rule:evenodd; clip-rule:evenodd"
viewBox="0 0 21000 29700"
 xmlns:xlink="http://www.w3.org/1999/xlink">
 <defs>
  <style type="text/css">
   <![CDATA[
    .str0 {stroke:#F58634;stroke-width:7.62}
    .fil0 {fill:#F58634}
   ]]>
  </style>
 </defs>
 <g id="Camada_x0020_1">
  <metadata id="CorelCorpID_0Corel-Layer"/>
  <path class="fil0 str0" d="M21000 5129l-2749 0 -862 3881 -2004 940 1841 4975 3774 -3672 0 -6124zm0 0z"/>
  <path class="fil0 str0" d="M10500 19189l-2639 3679 812 1735 3654 0 812 -1735 -2639 -3679zm0 0z"/>
  <path class="fil0 str0" d="M14126 10092l-7252 0 -2205 5959 2594 5540 3237 -4513 3237 4513 2594 -5540 -2205 -5959zm0 0z"/>
  <path class="fil0 str0" d="M5615 9950l-2004 -940 -862 -3881 -2749 0 0 6124 3774 3672 1841 -4975zm0 0z"/>
 </g>
</svg>
