<?xml version="1.0" standalone="no"?>
<!DOCTYPE svg PUBLIC "-//W3C//DTD SVG 20010904//EN"
 "http://www.w3.org/TR/2001/REC-SVG-20010904/DTD/svg10.dtd">
<svg version="1.0" xmlns="http://www.w3.org/2000/svg" width="300.000000pt" height="175.000000pt" viewBox="0 0 300.000000 175.000000" preserveAspectRatio="xMidYMid meet">
<g transform="translate(0.000000,175.000000) scale(0.100000,-0.100000)" fill="#008AFC" stroke="none">
<path d="M615 1385 c-100 -16 -152 -36 -238 -93 -104 -68 -171 -158 -213 -287 -26 -83 -26 -257 0 -335 41 -120 95 -200 181 -268 104 -82 229 -122 380 -122 53 0 111 -10 202 -34 423 -114 416 -113 468 -61 29 30 35 43 35 79 0 60 -36 98 -110 116 -80 19 -83 23 -36 74 128 138 175 338 126 530 -11 43 -32 101 -47 129 -35 65 -133 165 -196 200 -144 79 -343 105 -552 72z m301 -226 c87 -16 157 -53 208 -110 60 -67 80 -128 74 -233 -7 -134 -63 -217 -187 -275 -51 -24 -69 -26 -201 -29 -166 -4 -226 8 -304 60 -121 80 -169 239 -115 385 24 66 97 145 157 171 90 38 253 52 368 31z"/>
<path d="M2056 1384 c-71 -17 -144 -61 -190 -115 -42 -50 -44 -54 -275 -562 -89 -196 -131 -300 -131 -324 0 -53 53 -103 110 -103 60 0 91 27 130 112 18 40 53 115 77 166 23 52 43 95 43 97 0 2 19 45 43 97 24 51 71 154 105 228 50 107 69 140 96 158 62 42 151 26 195 -37 12 -16 21 -31 21 -34 0 -5 221 -493 300 -663 21 -44 50 -90 65 -102 50 -39 135 -22 165 33 23 43 16 85 -28 178 -23 49 -42 90 -42 92 0 2 -15 36 -34 77 -18 40 -70 152 -114 248 -44 96 -94 205 -111 242 -55 119 -152 193 -281 218 -64 12 -70 12 -144 -6z"/>
<path d="M2052 809 c-45 -23 -85 -78 -97 -136 -14 -70 35 -167 101 -198 44 -21 133 -21 172 -1 135 70 136 265 2 337 -47 26 -124 25 -178 -2z"/>
</g>
</svg>
