<?xml version="1.0" standalone="no"?>
<!DOCTYPE svg PUBLIC "-//W3C//DTD SVG 20010904//EN" "http://www.w3.org/TR/2001/REC-SVG-20010904/DTD/svg10.dtd">
<svg version="1.0" xmlns="http://www.w3.org/2000/svg" width="502.000000pt" height="220.000000pt" viewBox="0 0 502.000000 220.000000" preserveAspectRatio="xMidYMid meet">
<style> .svg-color-1{ fill:#616158; } .svg-color-2{ fill:#FF5500; } </style>
<g transform="translate(0.000000,220.000000) scale(0.100000,-0.100000)" fill="#000000" stroke="none">
<path class="svg-color-2" d="M3621 2185 c-193 -44 -307 -165 -368 -392 -25 -93 -27 -110 -27 -333 0 -223 2 -240 27 -333 49 -181 127 -291 250 -352 92 -45 167 -59 292 -52 258 13 409 156 472 447 26 121 26 459 0 579 -49 228 -158 369 -325 422 -88 27 -235 34 -321 14z m251 -266 c52 -26 95 -84 120 -159 17 -53 22 -98 25 -250 9 -314 -28 -447 -140 -510 -35 -20 -56 -25 -123 -25 -72 0 -85 3 -129 30 -101 63 -135 174 -135 447 0 293 36 408 145 466 67 35 168 36 237 1z"/>
<path class="svg-color-2" d="M4480 2045 l0 -125 95 0 95 0 0 -605 0 -605 145 0 145 0 0 730 0 730 -240 0 -240 0 0 -125z"/>
<path class="svg-color-1" d="M0 1995 l0 -115 315 -2 314 -3 -314 -475 -314 -475 -1 -107 0 -108 475 0 475 0 0 115 0 115 -310 0 c-184 0 -310 4 -310 9 0 5 139 220 310 477 l310 468 0 108 0 108 -475 0 -475 0 0 -115z"/>
<path class="svg-color-1" d="M1545 1823 c-102 -21 -190 -68 -260 -138 -108 -109 -155 -234 -155 -415 0 -170 44 -299 138 -402 106 -115 236 -169 407 -169 167 0 294 48 395 150 51 51 120 164 120 198 0 10 -30 13 -143 13 l-143 0 -31 -43 c-79 -112 -267 -127 -375 -29 -47 42 -88 121 -88 170 l0 32 405 0 405 0 0 95 c0 118 -13 181 -56 271 -100 212 -358 323 -619 267z m260 -240 c69 -36 116 -100 130 -176 l7 -37 -266 0 c-295 0 -277 -5 -251 71 22 63 66 112 127 144 47 24 62 26 133 22 55 -2 92 -10 120 -24z"/>
<path class="svg-color-1" d="M2962 1825 c-82 -18 -137 -51 -201 -120 l-51 -57 0 86 0 86 -135 0 -135 0 0 -555 0 -555 134 0 135 0 4 328 c4 364 6 381 69 444 42 42 82 56 191 65 l77 6 0 143 c0 109 -3 144 -12 143 -7 0 -42 -7 -76 -14z"/>
<path class="svg-color-2" d="M3990 605 c-27 -33 15 -81 58 -64 24 9 30 47 10 67 -16 16 -53 15 -68 -3z"/>
<path class="svg-color-2" d="M4320 605 c-27 -33 15 -81 58 -64 24 9 30 47 10 67 -16 16 -53 15 -68 -3z"/>
<path class="svg-color-2" d="M3590 380 l0 -220 35 0 c31 0 35 3 35 25 l0 24 36 -24 c95 -65 206 -2 221 123 16 137 -114 229 -221 157 l-36 -24 0 79 0 80 -35 0 -35 0 0 -220z m228 14 c42 -48 24 -136 -32 -159 -64 -27 -127 19 -126 92 1 90 101 132 158 67z"/>
<path class="svg-color-2" d="M4150 380 l0 -220 40 0 40 0 0 220 0 220 -40 0 -40 0 0 -220z"/>
<path class="svg-color-2" d="M4500 530 c0 -33 -3 -40 -20 -40 -15 0 -20 -7 -20 -29 0 -20 6 -30 20 -34 18 -5 20 -14 20 -107 0 -56 5 -110 10 -120 10 -19 66 -40 108 -40 18 0 22 5 22 34 0 32 -3 35 -32 38 l-33 3 -3 98 -3 97 36 0 c32 0 35 2 35 30 0 28 -3 30 -35 30 -34 0 -35 1 -35 40 0 39 -1 40 -35 40 -34 0 -35 -1 -35 -40z"/>
<path class="svg-color-2" d="M2462 368 c5 -135 12 -159 61 -188 41 -25 93 -25 135 0 32 20 32 20 32 0 0 -17 7 -20 40 -20 l40 0 0 165 0 165 -40 0 -40 0 0 -114 c0 -113 0 -115 -27 -136 -33 -26 -79 -21 -105 11 -15 17 -18 41 -18 130 l0 109 -41 0 -41 0 4 -122z"/>
<path class="svg-color-2" d="M2898 474 c-51 -27 -63 -82 -27 -127 13 -18 43 -33 90 -47 66 -20 70 -23 67 -48 -3 -24 -8 -27 -45 -30 -34 -2 -45 1 -55 17 -9 15 -23 21 -50 21 -45 0 -47 -8 -13 -48 34 -40 75 -55 136 -50 65 7 103 41 103 92 0 49 -26 73 -105 96 -68 21 -89 41 -68 66 18 22 77 18 91 -6 13 -21 78 -29 78 -10 0 23 -24 58 -50 73 -35 21 -115 21 -152 1z"/>
<path class="svg-color-2" d="M3233 471 c-46 -29 -67 -75 -68 -146 0 -45 6 -69 23 -96 42 -69 130 -89 196 -44 l36 24 0 -24 c0 -22 4 -25 40 -25 l40 0 0 165 0 165 -40 0 c-37 0 -40 -2 -40 -27 l0 -26 -25 23 c-35 33 -118 39 -162 11z m132 -53 c15 -7 33 -24 41 -39 43 -84 -23 -176 -106 -147 -76 26 -80 158 -6 188 29 12 41 12 71 -2z"/>
<path class="svg-color-2" d="M3990 325 l0 -165 35 0 35 0 0 165 0 165 -35 0 -35 0 0 -165z"/>
<path class="svg-color-2" d="M4320 325 l0 -165 35 0 35 0 0 165 0 165 -35 0 -35 0 0 -165z"/>
<path class="svg-color-2" d="M4684 473 c3 -10 32 -83 65 -162 l59 -143 -34 -77 -33 -76 36 -3 c19 -2 37 -1 40 1 2 3 48 110 102 239 l98 233 -30 3 c-16 2 -34 1 -41 -1 -6 -3 -29 -55 -51 -116 -22 -61 -42 -111 -45 -111 -3 0 -24 51 -46 113 l-41 112 -42 3 c-37 3 -42 1 -37 -15z"/>
</g>
</svg>